{"title":"The Super 2011 DvDScr x264 Feel-Free","uid":6331005,"size":1286231412,"categoryP":"video","categoryS":"movies","magnet":"?xt=urn:btih:a17a3bc49c0a366e3c9c797e39fe05b76adbb4ab&amp;dn=The+Super+2011+DvDScr+x264+Feel-Free&amp;tr=udp%3A%2F%2Ftracker.openbittorrent.com%3A80&amp;tr=udp%3A%2F%2Fopen.demonii.com%3A1337&amp;tr=udp%3A%2F%2Ftracker.coppersurfer.tk%3A6969&amp;tr=udp%3A%2F%2Fexodus.desync.com%3A6969","seeders":0,"leechers":0,"uploader":"hiest","files":-1,"time":1303285128,"description":" ######## ######## ######## ##          ######## ########  ######## ######## \n ##       ##       ##       ##          ##       ##     ## ##       ##       \n ##       ##       ##       ##          ##       ##     ## ##       ##       \n ######   ######   ######   ##          ######   ########  ######   ######   \n ##       ##       ##       ##          ##       ##   ##   ##       ##       \n ##       ##       ##       ##          ##       ##    ##  ##       ##       \n ##       ######## ######## ########    ##       ##     ## ######## ########\n\n Genre:Horror\n Language:English\n IMDb:\n &lt;a href=&quot; http://www.imdb.com/title/tt1640569/&quot; rel=&quot;nofollow&quot; target=&quot;_NEW&quot;&gt; http://www.imdb.com/title/tt1640569/&lt;/a&gt;\n Source:DVDSCR Thanks!\n\n\n Format : MPEG-4\n Format profile : Base Media\n Codec ID : isom\n File size : 1.20 GiB\n Duration : 1h 37mn\n Overall bit rate : 1 751 Kbps\n\n\n Video\n Format profile : &lt;a class=&quot;__cf_email__&quot; href=&quot;/cdn-cgi/l/email-protection&quot; data-cfemail=&quot;622a0b050a222e564c53&quot;&gt;[email&amp;#160;protected]&lt;/a&gt;&lt;script cf-hash='f9e31' type=&quot;text/javascript&quot;&gt;\n/* &lt;![CDATA[ */!function(){try{var t=&quot;currentScript&quot;in document?document.currentScript:function(){for(var t=document.getElementsByTagName(&quot;script&quot;),e=t.length;e--;)if(t[e].getAttribute(&quot;cf-hash&quot;))return t[e]}();if(t&amp;&amp;t.previousSibling){var e,r,n,i,c=t.previousSibling,a=c.getAttribute(&quot;data-cfemail&quot;);if(a){for(e=&quot;&quot;,r=parseInt(a.substr(0,2),16),n=2;a.length-n;n+=2)i=parseInt(a.substr(n,2),16)^r,e+=String.fromCharCode(i);e=document.createTextNode(e),c.parentNode.replaceChild(e,c)}}}catch(u){}}();/* ]]&gt; */&lt;/script&gt;\n Format settings, CABAC : Yes\n Format settings, ReFrames : 3 frames\n Codec ID : avc1\n Codec ID/Info : Advanced Video Coding\n Duration : 1h 37mn\n Bit rate mode : Variable\n Bit rate : 1 500 Kbps\n Maximum bit rate : 9 940 Kbps\n Width : 720 pixels\n Height : 384 pixels\n Display aspect ratio : 1.875\n Frame rate mode : Constant\n Frame rate : 23.976 fps\n Color space : YUV\n Chroma subsampling : 4:2:0\n Bit depth : 8 bits\n Scan type : Progressive\n Bits/(Pixel*Frame) : 0.226\n Stream size : 1.02 GiB (85%)\n Writing library : x264\n\n\n Audio\n ID : 2\n Format : AAC\n Format/Info : Advanced Audio Codec\n Format version : Version 4\n Format profile : LC\n Format settings, SBR : No\n Codec ID : 40\n Duration : 1h 37mn\n Bit rate mode : Variable\n Bit rate : 256 Kbps\n Maximum bit rate : 373 Kbps\n Channel(s) : 2 channels\n Channel positions : Front: L R\n Sampling rate : 48.0 KHz\n Stream size : 179 MiB (15%)\n Encoded date : UTC 2011-04-19 00:14:05\n Tagged date : UTC 2011-04-19 00:14:14\n\n\n Plot:\n George Rossi, who immigrated to the US and served in the Vietnam war, is now a   Superintendent of a Queens apartment building. He finds himself quickly slipping into a depraved world which is fueled by the tenants of the building.\n\n ######## ######## ######## ##          ######## ########  ######## ######## \n ##       ##       ##       ##          ##       ##     ## ##       ##       \n ##       ##       ##       ##          ##       ##     ## ##       ##       \n ######   ######   ######   ##          ######   ########  ######   ######   \n ##       ##       ##       ##          ##       ##   ##   ##       ##       \n ##       ##       ##       ##          ##       ##    ##  ##       ##       \n ##       ######## ######## ########    ##       ##     ## ######## ########","torrent":{"xt":"urn:btih:a17a3bc49c0a366e3c9c797e39fe05b76adbb4ab","amp;dn":"The+Super+2011+DvDScr+x264+Feel-Free","amp;tr":["udp%3A%2F%2Ftracker.openbittorrent.com%3A80","udp%3A%2F%2Fopen.demonii.com%3A1337","udp%3A%2F%2Ftracker.coppersurfer.tk%3A6969","udp%3A%2F%2Fexodus.desync.com%3A6969"],"infoHash":"a17a3bc49c0a366e3c9c797e39fe05b76adbb4ab","infoHashBuffer":{"type":"Buffer","data":[161,122,59,196,156,10,54,110,60,156,121,126,57,254,5,183,106,219,180,171]},"announce":[],"urlList":[]}}